<svg xmlns="http://www.w3.org/2000/svg" xmlns:xlink="http://www.w3.org/1999/xlink" width="300" zoomAndPan="magnify" viewBox="0 0 224.87999 225" height="300" preserveAspectRatio="xMidYMid meet" version="1.0"><defs><g/></defs><g fill="#ffffff" fill-opacity="1"><g transform="translate(36.682793, 128.016733)"><g><path d="M 29.421875 -19.34375 L 9.90625 -19.34375 L 9.90625 -15.5625 C 11.125 -15.539062 12.953125 -15.53125 15.390625 -15.53125 C 19.597656 -15.53125 23.878906 -15.601562 28.234375 -15.75 L 28.234375 -8.71875 C 23.878906 -8.882812 19.285156 -8.96875 14.453125 -8.96875 C 12.441406 -8.96875 10.925781 -8.957031 9.90625 -8.9375 L 9.90625 0 L 1.4375 0 C 1.625 -4.632812 1.71875 -8.972656 1.71875 -13.015625 C 1.71875 -17.054688 1.625 -21.398438 1.4375 -26.046875 L 29.421875 -26.046875 Z M 29.421875 -19.34375 "/></g></g></g><g fill="#ffffff" fill-opacity="1"><g transform="translate(63.768447, 128.016733)"><g><path d="M 10.1875 -7.25 C 17.125 -7.289062 22.863281 -7.410156 27.40625 -7.609375 C 27.09375 -6.390625 26.898438 -5.21875 26.828125 -4.09375 C 26.765625 -2.96875 26.734375 -1.601562 26.734375 0 L 1.4375 0 C 1.625 -4.632812 1.71875 -8.972656 1.71875 -13.015625 C 1.71875 -17.054688 1.625 -21.398438 1.4375 -26.046875 L 10.1875 -26.046875 Z M 10.1875 -7.25 "/></g></g></g><g fill="#ffffff" fill-opacity="1"><g transform="translate(88.845086, 128.016733)"><g><path d="M 24.078125 0 C 23.617188 -1.363281 23.007812 -3.070312 22.25 -5.125 L 10.796875 -5.125 L 9 0 L 0 0 L 10.046875 -26.046875 L 23.25 -26.046875 L 33.359375 0 Z M 20.203125 -10.734375 C 19.285156 -13.242188 18.351562 -15.753906 17.40625 -18.265625 L 16.53125 -20.59375 C 15.695312 -18.414062 14.46875 -15.128906 12.84375 -10.734375 Z M 20.203125 -10.734375 "/></g></g></g><g fill="#ffffff" fill-opacity="1"><g transform="translate(118.908398, 128.016733)"><g><path d="M 34.984375 -26.046875 L 37.78125 0 L 28.484375 0 L 27.90625 -18.578125 L 24.328125 0 L 14.921875 0 L 11.265625 -18.4375 L 10.734375 0 L 1.4375 0 L 4.234375 -26.046875 L 16.4375 -26.046875 L 19.546875 -9.078125 L 22.28125 -26.046875 Z M 34.984375 -26.046875 "/></g></g></g><g fill="#ffffff" fill-opacity="1"><g transform="translate(154.353007, 128.016733)"><g><path d="M 33.359375 -26.046875 L 32.6875 -25 C 30.125 -21.03125 27.925781 -17.519531 26.09375 -14.46875 C 24.269531 -11.425781 22.75 -8.625 21.53125 -6.0625 L 21.53125 0 L 12.15625 0 L 12.15625 -6.671875 C 11.269531 -8.460938 10.226562 -10.304688 9.03125 -12.203125 C 7.84375 -14.109375 6.148438 -16.722656 3.953125 -20.046875 C 2.222656 -22.585938 0.90625 -24.585938 0 -26.046875 L 10.046875 -26.046875 C 10.765625 -24.585938 11.9375 -22.421875 13.5625 -19.546875 C 15.1875 -16.628906 16.296875 -14.570312 16.890625 -13.375 C 17.734375 -15.125 18.859375 -17.265625 20.265625 -19.796875 C 21.921875 -22.765625 23.035156 -24.847656 23.609375 -26.046875 Z M 33.359375 -26.046875 "/></g></g></g></svg>